<svg width="32" height="32" viewBox="0 0 32 32" fill="none" xmlns="http://www.w3.org/2000/svg">
<circle cx="16" cy="16" r="16" fill="#414141" fill-opacity="0.5"/>
<path d="M12.678 18.5322C13.8673 16.111 14.4619 14.9004 15.3178 14.612C15.7608 14.4627 16.2392 14.4627 16.6822 14.612C17.5381 14.9004 18.1327 16.111 19.322 18.5322L19.9811 19.874C20.2883 20.4994 20.4419 20.8121 20.4783 21.0252C20.6292 21.9092 19.9752 22.724 19.0941 22.7497C18.8817 22.7559 18.55 22.665 17.8867 22.4832C17.5076 22.3793 17.3181 22.3274 17.1285 22.289C16.3835 22.1383 15.6165 22.1383 14.8715 22.289C14.6819 22.3274 14.4924 22.3793 14.1133 22.4832C13.45 22.665 13.1183 22.7559 12.9059 22.7497C12.0248 22.724 11.3708 21.9092 11.5217 21.0252C11.5581 20.8121 11.7117 20.4994 12.0189 19.874L12.678 18.5322Z" fill="white"/>
<path d="M11.6086 11.1456C11.9174 12.3687 12.7908 13.183 13.5592 12.9646C14.3277 12.7461 14.7003 11.5775 14.3914 10.3544C14.0826 9.13134 13.2092 8.31696 12.4408 8.53544C11.6723 8.75392 11.2997 9.92252 11.6086 11.1456Z" fill="white"/>
<path d="M20.3914 11.1456C20.0826 12.3687 19.2092 13.183 18.4408 12.9646C17.6723 12.7461 17.2997 11.5775 17.6086 10.3544C17.9174 9.13134 18.7908 8.31696 19.5592 8.53544C20.3277 8.75392 20.7003 9.92252 20.3914 11.1456Z" fill="white"/>
<path d="M8.65124 16.2228C8.98875 17.1266 9.78226 17.6756 10.4236 17.4489C11.0649 17.2223 11.3113 16.306 10.9738 15.4022C10.6363 14.4984 9.84274 13.9494 9.2014 14.1761C8.56006 14.4027 8.31374 15.319 8.65124 16.2228Z" fill="white"/>
<path d="M23.3488 16.2228C23.0113 17.1266 22.2177 17.6756 21.5764 17.4489C20.9351 17.2223 20.6887 16.306 21.0262 15.4022C21.3637 14.4984 22.1573 13.9494 22.7986 14.1761C23.4399 14.4027 23.6863 15.319 23.3488 16.2228Z" fill="white"/>
</svg>
