<svg width="19" height="19" viewBox="0 0 19 19" fill="none" xmlns="http://www.w3.org/2000/svg">
<path fill-rule="evenodd" clip-rule="evenodd" d="M2.10329 10.5749C2.10329 6.63984 5.29326 3.44987 9.22829 3.44987C13.1633 3.44987 16.3533 6.63984 16.3533 10.5749C16.3533 14.5099 13.1633 17.6999 9.22829 17.6999C5.29326 17.6999 2.10329 14.5099 2.10329 10.5749ZM3.29079 10.5749C3.29079 13.8541 5.9491 16.5124 9.22829 16.5124C10.803 16.5124 12.3132 15.8868 13.4267 14.7733C14.5402 13.6598 15.1658 12.1496 15.1658 10.5749C15.1658 7.29567 12.5075 4.63737 9.22829 4.63737C5.9491 4.63737 3.29079 7.29567 3.29079 10.5749Z" fill="#414141"/>
<path d="M7.36788 7.55862C7.13393 7.34062 6.76937 7.34706 6.54326 7.57316C6.31715 7.79927 6.31072 8.16384 6.52871 8.39778L8.63454 10.5036V13.7415C8.63454 14.0695 8.90038 14.3353 9.22829 14.3353C9.55621 14.3353 9.82205 14.0695 9.82205 13.7415V10.2582C9.82191 10.1008 9.75926 9.94986 9.64788 9.83862L7.36788 7.55862Z" fill="#414141"/>
<path d="M16.7729 4.63737C15.7955 3.33389 14.4972 2.30566 13.0045 1.65278C12.8589 1.58675 12.6927 1.58228 12.5437 1.6404C12.3947 1.69852 12.2754 1.8143 12.2129 1.96153C12.1445 2.10692 12.1389 2.274 12.1972 2.42367C12.2556 2.57335 12.3729 2.69248 12.5216 2.7532C13.8255 3.32687 14.9597 4.22659 15.815 5.3657C15.9271 5.51521 16.1031 5.6032 16.29 5.6032C16.4185 5.60378 16.5437 5.56205 16.6462 5.48445C16.7781 5.39096 16.8661 5.24776 16.89 5.08789C16.9139 4.92803 16.8716 4.76534 16.7729 4.63737Z" fill="#414141"/>
<path d="M2.63371 5.34987C3.48901 4.21075 4.6232 3.31104 5.92704 2.73737C6.07578 2.67665 6.19306 2.55752 6.25144 2.40784C6.30981 2.25816 6.30416 2.09108 6.23579 1.9457C6.17329 1.79847 6.05402 1.68268 5.905 1.62456C5.75598 1.56645 5.58981 1.57091 5.44413 1.63695C3.95249 2.29542 2.65692 3.32915 1.68371 4.63737C1.5127 4.89228 1.56419 5.23551 1.80246 5.42903C1.90496 5.50663 2.03015 5.54836 2.15871 5.54778C2.33889 5.55741 2.51368 5.48459 2.63371 5.34987Z" fill="#414141"/>
</svg>
