<svg width="19" height="19" viewBox="0 0 19 19" fill="none" xmlns="http://www.w3.org/2000/svg">
<path d="M15.1935 0.327716C14.53 0.00204392 11.1667 0.374028 8.74066 2.70034C4.91988 6.51637 5.01162 11.5419 5.01162 11.5419C5.01162 11.5419 4.88574 12.0593 4.34721 11.3091C3.16921 9.80842 3.78641 6.35458 3.85529 5.87304C3.95266 5.19587 3.52071 5.17509 3.34051 5.39953C-0.915194 11.3088 2.92845 16.1482 5.44565 17.6842C8.39184 19.4818 14.2049 19.4812 16.5209 14.3806C19.4038 8.02836 16.0245 0.735325 15.1935 0.327716Z" fill="#79AC6A"/>
<path d="M15.1275 5.93233C15.4229 3.95128 15.4247 2.04297 15.1819 0.323467C14.4961 0.00640441 11.1547 0.385217 8.74085 2.70025C4.92007 6.51628 5.01181 11.5418 5.01181 11.5418C5.01181 11.5418 4.88593 12.0592 4.3474 11.309C3.1694 9.80833 3.78661 6.35448 3.85548 5.87295C3.95286 5.19578 3.5209 5.175 3.3407 5.39944C0.768575 8.97084 1.15659 12.1498 2.42039 14.4467C3.68537 15.8049 5.12492 16.6976 6.45818 16.8965C10.2582 17.4635 14.1389 12.5547 15.1275 5.93233Z" fill="#CAE5C2"/>
<path d="M15.1274 5.93232C15.4228 3.95127 15.4245 2.04296 15.1817 0.323462C14.4959 0.00639907 11.8344 1.10781 9.42024 3.42343C5.59946 7.23917 5.01165 11.5418 5.01165 11.5418C5.01165 11.5418 4.88577 12.0592 4.34724 11.309C3.16924 9.80832 3.57418 7.21571 3.64335 6.73448C3.74102 6.05701 3.30877 6.03652 3.12857 6.26096C0.55674 9.83237 1.15672 12.1501 2.42082 14.4467C3.6858 15.8049 5.12535 16.6976 6.45861 16.8965C10.258 17.4635 14.1388 12.5547 15.1274 5.93232Z" fill="#99C08E"/>
</svg>
