<svg width="16" height="16" viewBox="0 0 16 16" fill="none" xmlns="http://www.w3.org/2000/svg">
<rect x="1" y="1" width="14" height="14" rx="3" fill="#F6F4EF"/>
<path d="M11.0096 7.91704C11.1482 7.6576 11.2272 7.3611 11.2272 7.04607C11.2272 6.01999 10.3953 5.18815 9.36925 5.18815C9.19492 5.18815 9.02676 5.21217 8.86684 5.25747C8.53054 4.70908 7.9245 4.34326 7.23335 4.34326C6.17433 4.34326 5.3164 5.20256 5.3164 6.26158C5.3164 6.50318 5.36101 6.73447 5.44338 6.94724C4.61839 7.125 4 7.86007 4 8.73928C4 9.30002 4.25189 9.80311 4.64928 10.1387C4.63143 10.2382 4.62182 10.3412 4.62182 10.4462C4.62182 11.4263 5.41661 12.2204 6.39602 12.2204C6.67536 12.2204 6.93891 12.1559 7.17364 12.0413C7.43651 12.3693 7.84145 12.5794 8.29444 12.5794C8.85449 12.5794 9.34042 12.2595 9.57789 11.7907C9.67879 11.8065 9.78311 11.8141 9.88949 11.8141C11.0549 11.8141 12 10.8697 12 9.70359C12 8.94998 11.6047 8.28766 11.0089 7.91567L11.0096 7.91704Z" fill="#578246"/>
<path d="M11.0096 7.57378C11.1482 7.31434 11.2272 7.01784 11.2272 6.70281C11.2272 5.67673 10.3953 4.84489 9.36925 4.84489C9.19492 4.84489 9.02676 4.86891 8.86684 4.91421C8.53054 4.36582 7.9245 4 7.23335 4C6.17433 4 5.3164 4.8593 5.3164 5.91832C5.3164 6.15992 5.36101 6.39121 5.44338 6.60398C4.61839 6.78174 4 7.51681 4 8.39601C4 8.95676 4.25189 9.45984 4.64928 9.79546C4.63143 9.89498 4.62182 9.99794 4.62182 10.1029C4.62182 11.083 5.41661 11.8771 6.39602 11.8771C6.67536 11.8771 6.93891 11.8126 7.17364 11.698C7.43651 12.0261 7.84145 12.2361 8.29444 12.2361C8.85449 12.2361 9.34042 11.9163 9.57789 11.4475C9.67879 11.4633 9.78311 11.4708 9.88949 11.4708C11.0549 11.4708 12 10.5264 12 9.36032C12 8.60672 11.6047 7.9444 11.0089 7.57241L11.0096 7.57378Z" fill="#99C08E"/>
</svg>
