<svg width="182" height="60" viewBox="0 0 182 60" fill="none" xmlns="http://www.w3.org/2000/svg">
<path d="M174.676 27.3935C175.645 25.5791 176.197 23.5055 176.197 21.3023C176.197 14.1263 170.38 8.3087 163.204 8.3087C161.985 8.3087 160.809 8.4767 159.69 8.7935C157.338 4.9583 153.1 2.3999 148.266 2.3999C140.86 2.3999 134.86 8.4095 134.86 15.8159C134.86 17.5055 135.172 19.1231 135.748 20.6111C129.978 21.8543 125.653 26.9951 125.653 33.1439C125.653 37.0655 127.415 40.5839 130.194 42.9311C130.069 43.6271 130.002 44.3471 130.002 45.0815C130.002 51.9359 135.561 57.4895 142.41 57.4895C144.364 57.4895 146.207 57.0383 147.849 56.2367C149.687 58.5311 152.519 59.9999 155.687 59.9999C159.604 59.9999 163.002 57.7631 164.663 54.4847C165.369 54.5951 166.098 54.6479 166.842 54.6479C174.993 54.6479 181.602 48.0431 181.602 39.8879C181.602 34.6175 178.837 29.9855 174.671 27.3839L174.676 27.3935Z" fill="#578246"/>
<path d="M174.676 24.9936C175.645 23.1792 176.197 21.1056 176.197 18.9024C176.197 11.7264 170.38 5.9088 163.204 5.9088C161.985 5.9088 160.809 6.0768 159.69 6.3936C157.338 2.5584 153.1 0 148.266 0C140.86 0 134.86 6.0096 134.86 13.416C134.86 15.1056 135.172 16.7232 135.748 18.2112C129.978 19.4544 125.653 24.5952 125.653 30.744C125.653 34.6656 127.415 38.184 130.194 40.5312C130.069 41.2272 130.002 41.9472 130.002 42.6816C130.002 49.536 135.561 55.0896 142.41 55.0896C144.364 55.0896 146.207 54.6384 147.849 53.8368C149.687 56.1312 152.519 57.6 155.687 57.6C159.604 57.6 163.002 55.3632 164.663 52.0848C165.369 52.1952 166.098 52.248 166.842 52.248C174.993 52.248 181.602 45.6432 181.602 37.488C181.602 32.2176 178.837 27.5856 174.671 24.984L174.676 24.9936Z" fill="#99C08E"/>
<path d="M145.55 36.811C145.411 36.811 145.214 36.8206 144.964 36.8446C144.71 36.8686 144.527 36.8782 144.412 36.8782C143.975 36.8782 143.659 36.763 143.462 36.5326C143.265 36.3022 143.169 35.9326 143.169 35.4286C143.169 35.2894 143.251 34.5646 143.409 33.2494C145.022 32.7214 146.601 32.4526 148.142 32.4526C148.257 32.4526 148.43 32.4574 148.66 32.4718C148.891 32.4814 149.073 32.491 149.212 32.491L151.631 32.3518C151.54 32.1454 151.487 31.8622 151.478 31.507C151.468 31.1518 151.425 30.8734 151.358 30.6766C151.291 30.4798 151.137 30.3694 150.907 30.3502C150.561 30.283 149.145 30.2158 146.654 30.1582C144.167 30.1006 142.713 30.0958 142.3 30.139C141.772 30.2302 141.316 30.259 140.937 30.2254C140.558 30.1918 140.275 29.9422 140.092 29.4814C139.747 28.723 139.641 27.8686 139.78 26.923C139.828 26.6926 140.02 26.4622 140.366 26.2318C140.711 26.0014 141.518 25.819 142.785 25.6798C144.052 25.5406 144.95 25.5166 145.483 25.6126H149.822C150.638 25.6126 151.209 25.603 151.531 25.579C155.769 25.531 158.212 25.5118 158.855 25.5118C159.499 25.5118 160.905 25.5694 163.07 25.6846C165.235 25.7998 166.377 25.8574 166.492 25.8574C166.607 25.8574 166.814 25.891 167.116 25.963C167.601 26.0782 167.927 26.2462 168.1 26.4622C168.273 26.683 168.326 27.0334 168.254 27.5182C168.23 27.7006 168.206 27.8638 168.187 28.003C168.163 28.1422 168.139 28.267 168.119 28.3822C168.095 28.4974 168.052 28.5934 167.98 28.675C167.913 28.7566 167.865 28.8286 167.841 28.9006C167.817 28.9726 167.75 29.035 167.635 29.0926C167.519 29.1502 167.433 29.1982 167.375 29.2318C167.318 29.2654 167.203 29.3086 167.03 29.3518C166.857 29.3998 166.732 29.4334 166.651 29.4574C166.569 29.4814 166.401 29.5246 166.151 29.5966C165.897 29.6638 165.7 29.7118 165.566 29.7358C165.311 29.803 163.838 29.8798 161.14 29.9614C158.443 30.043 156.959 30.1294 156.681 30.2206C156.59 30.2446 156.537 30.3454 156.527 30.5326C156.518 30.715 156.518 30.9118 156.527 31.1182C156.537 31.3246 156.532 31.5454 156.508 31.7758C156.508 31.843 156.518 31.9486 156.542 32.0878C156.566 32.227 156.575 32.3182 156.575 32.3662C158.927 32.4142 160.943 32.4574 162.623 32.5054C163.06 32.5294 163.463 32.6206 163.833 32.7838C163.972 32.8318 164.092 32.923 164.198 33.0622C164.303 33.2014 164.351 33.3262 164.351 33.4414V33.9262C164.351 34.5934 164.251 35.1358 164.059 35.5486C163.862 35.9614 163.454 36.2734 162.83 36.4798C162.715 36.5278 162.35 36.5566 161.74 36.5662C161.131 36.5758 160.569 36.6046 160.065 36.6526C159.556 36.7006 159.307 36.7918 159.307 36.931C159.283 37.0462 159.292 37.2286 159.34 37.483C159.388 37.7374 159.407 37.9198 159.407 38.035C159.407 38.059 159.417 38.2558 159.441 38.6206C159.465 38.9902 159.475 39.2302 159.475 39.3454L163.795 39.6238C163.771 39.9214 163.756 40.5262 163.742 41.4382C163.727 42.3502 163.655 43.0558 163.516 43.5646C163.492 43.6558 163.411 43.7614 163.276 43.8766C163.137 43.9918 163.022 44.0494 162.931 44.0494C162.609 44.0734 161.27 44.083 158.923 44.083C158.39 44.083 157.622 44.0734 156.609 44.0494C155.596 44.0254 154.823 44.0158 154.295 44.0158C153.441 44.0158 152.159 44.0206 150.441 44.035C148.723 44.0446 147.441 44.0542 146.587 44.0542H143.788C143.467 44.0542 143.217 43.963 143.044 43.7758C142.871 43.5934 142.785 43.3486 142.785 43.051C142.785 42.9598 142.795 42.8542 142.819 42.739C142.819 42.6718 142.838 42.4318 142.871 42.0286C142.905 41.6254 142.958 41.3326 143.025 41.1454C143.207 40.7326 143.529 40.4542 143.995 40.315C144.407 40.1758 145.003 40.027 145.775 39.8638C146.548 39.7006 147.004 39.6094 147.139 39.5854C147.46 39.5182 147.695 39.4462 147.849 39.379C147.998 39.3118 148.156 39.1822 148.315 38.9998C148.473 38.8174 148.555 38.5726 148.555 38.275C148.555 38.1118 148.579 37.939 148.622 37.7566C148.67 37.5742 148.732 37.3582 148.814 37.1182C148.895 36.8782 148.948 36.7102 148.967 36.619C148.531 36.7342 148.3 36.7918 148.276 36.7918C147.585 36.8158 146.942 36.8254 146.342 36.8254H145.545L145.55 36.811ZM150.422 12.4126C152.956 12.2302 154.382 12.1246 154.708 12.1006C155.236 12.1006 155.827 12.283 156.47 12.6526C156.609 12.7198 156.734 12.8638 156.849 13.0846C156.964 13.3054 157.022 13.507 157.022 13.6894C156.998 15.1198 157.171 16.3966 157.54 17.5246C157.607 17.755 158.169 18.1198 159.215 18.6142C160.262 19.1086 161.006 19.4158 161.443 19.531C162.892 19.9246 164.726 20.4766 166.939 21.1918C167.308 21.307 167.567 21.4558 167.716 21.643C167.865 21.8254 167.86 22.1038 167.697 22.4734C167.63 22.6558 167.563 22.795 167.505 22.8862C167.447 22.9774 167.399 23.0638 167.366 23.1454C167.332 23.227 167.279 23.371 167.212 23.5774C167.164 23.8078 167.116 24.0574 167.059 24.3214C167.001 24.5854 166.972 24.7486 166.972 24.8062C166.972 24.8638 166.915 24.9406 166.799 25.0318C166.684 25.123 166.574 25.1758 166.473 25.1854C166.367 25.195 166.156 25.2238 165.835 25.2718C165.695 25.2958 165.307 25.3726 164.659 25.4974C164.015 25.6222 163.531 25.6894 163.209 25.6894C162.724 25.6894 162.23 25.4926 161.721 25.1038C161.467 24.8734 160.142 24.1726 157.747 22.9966C155.351 21.8206 153.724 21.0382 152.875 20.6446C152.438 20.4622 151.943 20.4958 151.387 20.7502C150.302 21.211 148.991 21.8686 147.446 22.7182C146.731 23.1118 145.929 23.467 145.046 23.7886C144.158 24.1102 143.414 24.2494 142.819 24.2014C142.358 24.1534 142.046 24.0622 141.887 23.923C141.724 23.7838 141.609 23.4862 141.542 23.0254C141.475 22.6318 141.369 22.2286 141.23 21.8158C141.115 21.4222 141.047 21.1198 141.023 20.899C140.999 20.6782 141.076 20.4718 141.249 20.275C141.422 20.0782 141.59 19.9342 141.748 19.843C141.907 19.7518 142.233 19.5886 142.718 19.3582C143.457 18.9646 144.695 18.3742 146.433 17.5774C148.171 16.7806 149.217 16.3054 149.563 16.1422C149.956 15.9598 150.22 15.7102 150.359 15.3982C150.499 15.0862 150.58 14.6878 150.599 14.2078C150.599 14.1406 150.542 13.5406 150.427 12.4126H150.422ZM152.495 39.0574C152.495 39.403 152.678 39.5758 153.047 39.5758H153.187C153.345 39.5758 153.7 39.5518 154.243 39.5086C154.785 39.4606 155.203 39.427 155.505 39.403C155.572 39.379 155.659 39.3358 155.764 39.2638C155.87 39.1966 155.918 39.139 155.918 39.091C155.942 38.6542 155.951 38.227 155.951 37.8142C155.951 37.2862 155.942 36.7534 155.918 36.2254C155.918 36.1774 155.855 36.1198 155.726 36.0526C155.601 35.9854 155.491 35.947 155.399 35.947H155.366C155.135 35.971 154.315 36.0862 152.913 36.2926C152.659 37.8574 152.519 38.7214 152.5 38.8846V39.0574H152.495Z" fill="#578246"/>
<path d="M145.679 38.7309C145.539 38.7309 145.343 38.7405 145.093 38.7645C144.839 38.7885 144.656 38.7981 144.541 38.7981C144.104 38.7981 143.787 38.6829 143.591 38.4525C143.394 38.2221 143.298 37.8525 143.298 37.3485C143.298 37.2093 143.379 36.4845 143.538 35.1693C145.151 34.6413 146.73 34.3725 148.271 34.3725C148.386 34.3725 148.559 34.3773 148.789 34.3917C149.019 34.4013 149.202 34.4109 149.341 34.4109L151.76 34.2717C151.669 34.0653 151.616 33.7821 151.607 33.4269C151.592 33.0717 151.554 32.7933 151.487 32.5965C151.419 32.3997 151.266 32.2893 151.035 32.2701C150.69 32.2029 149.274 32.1357 146.783 32.0781C144.296 32.0205 142.842 32.0157 142.429 32.0589C141.901 32.1501 141.445 32.1789 141.066 32.1453C140.687 32.1117 140.403 31.8621 140.221 31.4013C139.875 30.6429 139.77 29.7885 139.909 28.8429C139.957 28.6125 140.149 28.3821 140.495 28.1517C140.84 27.9213 141.647 27.7389 142.914 27.5997C144.181 27.4605 145.079 27.4365 145.611 27.5325H149.951C150.767 27.5325 151.338 27.5229 151.659 27.4989C155.898 27.4509 158.341 27.4317 158.984 27.4317C159.627 27.4317 161.034 27.4893 163.199 27.6045C165.363 27.7197 166.506 27.7773 166.621 27.7773C166.736 27.7773 166.943 27.8109 167.245 27.8829C167.73 27.9981 168.056 28.1661 168.229 28.3821C168.402 28.6029 168.455 28.9533 168.383 29.4381C168.359 29.6205 168.335 29.7837 168.315 29.9229C168.291 30.0621 168.267 30.1869 168.248 30.3021C168.224 30.4173 168.181 30.5133 168.109 30.5949C168.042 30.6765 167.994 30.7485 167.97 30.8205C167.946 30.8877 167.879 30.9549 167.763 31.0125C167.648 31.0701 167.562 31.1181 167.504 31.1517C167.447 31.1853 167.331 31.2285 167.159 31.2717C166.986 31.3197 166.861 31.3533 166.779 31.3773C166.698 31.4013 166.53 31.4445 166.28 31.5165C166.031 31.5885 165.829 31.6317 165.695 31.6557C165.44 31.7229 163.967 31.7997 161.269 31.8813C158.571 31.9629 157.088 32.0493 156.81 32.1405C156.719 32.1645 156.666 32.2653 156.656 32.4525C156.647 32.6349 156.647 32.8317 156.656 33.0381C156.666 33.2445 156.661 33.4653 156.637 33.6957C156.637 33.7629 156.647 33.8685 156.671 34.0077C156.695 34.1469 156.704 34.2381 156.704 34.2861C159.056 34.3341 161.072 34.3773 162.752 34.4253C163.189 34.4493 163.592 34.5405 163.962 34.7037C164.101 34.7517 164.221 34.8429 164.327 34.9821C164.432 35.1213 164.48 35.2461 164.48 35.3613V35.8461C164.48 36.5133 164.384 37.0557 164.187 37.4685C163.991 37.8813 163.583 38.1933 162.959 38.3997C162.843 38.4477 162.479 38.4765 161.869 38.4861C161.259 38.4957 160.698 38.5245 160.194 38.5725C159.685 38.6205 159.435 38.7117 159.435 38.8509C159.411 38.9661 159.426 39.1485 159.469 39.4029C159.517 39.6573 159.536 39.8397 159.536 39.9549C159.536 39.9789 159.546 40.1757 159.57 40.5405C159.594 40.9101 159.603 41.1501 159.603 41.2653L163.923 41.5437C163.899 41.8413 163.885 42.4461 163.871 43.3581C163.861 44.2701 163.784 44.9757 163.645 45.4845C163.621 45.5757 163.539 45.6813 163.405 45.7965C163.266 45.9117 163.151 45.9693 163.059 45.9693C162.738 45.9933 161.399 46.0029 159.051 46.0029C158.523 46.0029 157.751 45.9933 156.738 45.9693C155.725 45.9453 154.952 45.9357 154.424 45.9357C153.57 45.9357 152.288 45.9405 150.57 45.9549C148.851 45.9645 147.57 45.9741 146.715 45.9741H143.917C143.595 45.9741 143.346 45.8829 143.173 45.6957C143 45.5133 142.914 45.2685 142.914 44.9709C142.914 44.8797 142.923 44.7741 142.947 44.6589C142.947 44.5917 142.967 44.3517 143 43.9485C143.034 43.5453 143.087 43.2525 143.154 43.0653C143.336 42.6525 143.663 42.3741 144.123 42.2349C144.536 42.0957 145.131 41.9469 145.904 41.7837C146.677 41.6205 147.133 41.5293 147.267 41.5053C147.589 41.4381 147.824 41.3661 147.978 41.2989C148.127 41.2317 148.285 41.1021 148.443 40.9197C148.602 40.7373 148.683 40.4925 148.683 40.1949C148.683 40.0317 148.707 39.8589 148.751 39.6765C148.799 39.4941 148.861 39.2781 148.943 39.0381C149.024 38.7981 149.077 38.6301 149.096 38.5389C148.659 38.6541 148.429 38.7117 148.405 38.7117C147.714 38.7357 147.071 38.7453 146.471 38.7453H145.674L145.679 38.7309ZM150.551 14.3325C153.085 14.1501 154.511 14.0445 154.837 14.0205C155.365 14.0205 155.955 14.2029 156.599 14.5725C156.738 14.6397 156.863 14.7837 156.978 15.0045C157.093 15.2253 157.151 15.4269 157.151 15.6093C157.127 17.0397 157.299 18.3165 157.669 19.4445C157.736 19.6749 158.298 20.0397 159.344 20.5341C160.391 21.0285 161.135 21.3357 161.571 21.4509C163.021 21.8445 164.855 22.3965 167.067 23.1117C167.437 23.2269 167.696 23.3757 167.845 23.5629C167.994 23.7453 167.989 24.0237 167.826 24.3933C167.759 24.5757 167.691 24.7149 167.634 24.8061C167.576 24.8973 167.528 24.9837 167.495 25.0653C167.461 25.1469 167.408 25.2909 167.341 25.4973C167.293 25.7277 167.24 25.9773 167.187 26.2413C167.13 26.5053 167.101 26.6685 167.101 26.7261C167.101 26.7837 167.043 26.8605 166.928 26.9517C166.813 27.0429 166.703 27.0957 166.602 27.1053C166.496 27.1149 166.285 27.1437 165.963 27.1917C165.824 27.2157 165.431 27.2925 164.787 27.4173C164.144 27.5421 163.659 27.6093 163.338 27.6093C162.853 27.6093 162.359 27.4125 161.85 27.0237C161.595 26.7933 160.271 26.0925 157.875 24.9165C155.48 23.7405 153.853 22.9581 153.003 22.5645C152.567 22.3821 152.072 22.4157 151.515 22.6701C150.431 23.1309 149.12 23.7885 147.575 24.6381C146.859 25.0317 146.058 25.3869 145.175 25.7085C144.287 26.0301 143.543 26.1693 142.947 26.1213C142.487 26.0733 142.175 25.9821 142.016 25.8429C141.853 25.7037 141.738 25.4061 141.671 24.9453C141.603 24.5517 141.498 24.1485 141.359 23.7357C141.243 23.3421 141.176 23.0397 141.152 22.8189C141.128 22.5981 141.205 22.3917 141.378 22.1949C141.551 21.9981 141.719 21.8541 141.877 21.7629C142.04 21.6717 142.362 21.5085 142.847 21.2781C143.586 20.8845 144.824 20.2941 146.562 19.4973C148.299 18.7005 149.346 18.2253 149.691 18.0621C150.085 17.8797 150.349 17.6301 150.488 17.3181C150.627 17.0061 150.709 16.6077 150.728 16.1277C150.728 16.0605 150.671 15.4605 150.555 14.3325H150.551ZM152.624 40.9773C152.624 41.3229 152.807 41.4957 153.176 41.4957H153.315C153.479 41.4957 153.829 41.4717 154.371 41.4285C154.914 41.3805 155.331 41.3469 155.634 41.3229C155.701 41.2989 155.787 41.2557 155.893 41.1837C155.999 41.1117 156.047 41.0589 156.047 41.0109C156.071 40.5741 156.08 40.1469 156.08 39.7341C156.08 39.2061 156.071 38.6733 156.047 38.1453C156.047 38.0973 155.984 38.0397 155.855 37.9725C155.725 37.9053 155.619 37.8669 155.528 37.8669H155.495C155.264 37.8909 154.448 38.0061 153.042 38.2125C152.787 39.7773 152.648 40.6413 152.629 40.8045V40.9773H152.624Z" fill="white"/>
<path d="M20.5193 9.62848C21.7385 9.65728 23.4089 9.60448 25.1945 9.62848C28.9913 9.69088 37.9865 9.59968 39.7721 16.6413C41.8553 24.8637 40.1705 42.3549 39.3737 45.2637C38.5817 48.1725 37.1945 52.7997 29.9897 52.7997H12.8681C11.6777 52.7997 2.55772 52.3389 0.968918 43.6125C-0.615083 34.8909 0.176917 22.8621 0.359318 20.2509C0.541718 17.6445 1.03612 10.4349 9.89212 9.90209C15.3929 9.57569 18.3161 9.57568 20.5193 9.62848Z" fill="#BC3C6A"/>
<path d="M20.5193 7.22858C21.7385 7.25738 23.4089 7.20458 25.1945 7.22858C28.9913 7.29098 37.9865 7.19978 39.7721 14.2414C41.8553 22.4638 40.1705 39.955 39.3737 42.8638C38.5817 45.7726 37.1945 50.3998 29.9897 50.3998H12.8681C11.6777 50.3998 2.55772 49.939 0.968918 41.2126C-0.615083 32.491 0.176917 20.4622 0.359318 17.851C0.541718 15.2446 1.03612 8.03498 9.89212 7.50218C15.3929 7.17578 18.3161 7.17578 20.5193 7.22858Z" fill="#F885A7"/>
<path d="M18.8535 27.5712C18.8199 27.1488 18.8055 26.784 18.8151 26.4768C18.8247 26.1696 18.9111 25.9104 19.0791 25.6992C19.2471 25.488 19.5159 25.3392 19.8855 25.248C20.6967 25.0704 21.1623 24.984 21.2871 24.984C21.7095 24.9504 22.0407 24.9504 22.2759 24.984C22.5159 25.0176 22.6791 25.1184 22.7751 25.2864C22.8711 25.4544 22.9575 25.776 23.0247 26.2512C23.0439 26.2848 23.0487 26.4288 23.0487 26.6736C23.0487 26.9184 23.0487 27.1536 23.0631 27.3744C23.0727 27.5952 23.0919 27.7056 23.1303 27.7056C23.5863 27.7056 24.6327 27.7344 26.2695 27.7968C27.9063 27.8592 28.9431 27.888 29.3847 27.888L31.6263 27.6768C31.6791 27.696 31.7559 27.7344 31.8519 27.7968C31.9479 27.8592 32.0679 27.984 32.2071 28.1664C32.3463 28.3536 32.3991 28.5504 32.3655 28.7616C32.3463 28.8672 32.2311 29.5632 32.0247 30.8448C31.7799 30.864 31.6455 30.8736 31.6263 30.8736C31.5399 30.8736 28.4487 30.84 22.3623 30.768C22.0263 30.768 21.1239 30.792 19.6407 30.8352C18.1623 30.8784 17.3079 30.9024 17.0823 30.9024C16.6599 30.9216 15.5847 30.912 13.8615 30.8736C12.1383 30.84 11.0727 30.8112 10.6647 30.792C10.5591 30.792 10.3047 30.8112 9.90154 30.8448C9.49834 30.8784 9.23914 30.8976 9.13354 30.8976C8.97514 30.8976 8.84554 30.8832 8.73994 30.8592C8.63434 30.8304 8.55754 30.7776 8.51434 30.6864C8.47114 30.6 8.44234 30.5232 8.43274 30.4608C8.42314 30.3984 8.41354 30.2736 8.40874 30.0768C8.39914 29.8848 8.39434 29.7312 8.39434 29.6256C8.36074 29.3088 8.36074 28.8528 8.39434 28.2528C8.41354 27.936 8.57194 27.7776 8.86954 27.7776C9.31114 27.7584 10.6023 27.768 12.7479 27.8064C14.8935 27.84 16.2231 27.8496 16.7367 27.8304C16.9479 27.8304 17.6535 27.744 18.8487 27.5664L18.8535 27.5712ZM11.6199 17.856C11.7591 17.8368 11.9511 17.7984 12.1863 17.736C12.4263 17.6736 12.6327 17.6304 12.8055 17.6016C12.9831 17.5776 13.1559 17.5536 13.3335 17.5344C16.4151 17.4288 18.8007 17.376 20.4903 17.376C22.4103 17.376 24.4599 17.4384 26.6439 17.5584C27.2583 17.5584 27.6375 17.5728 27.7767 17.5968C27.9159 17.6256 28.1127 17.664 28.3575 17.7168C28.6023 17.7696 28.7943 17.8512 28.9239 17.9664C29.0583 18.0816 29.1495 18.2256 29.2023 18.4032C29.2215 18.4752 29.2455 18.5616 29.2839 18.6672C29.3559 18.9504 29.3991 19.1664 29.4135 19.3296C29.4327 19.5216 29.4471 19.7184 29.4663 19.9104C29.5383 19.944 29.5575 20.6832 29.5335 22.128C29.5047 23.5728 29.4951 24.312 29.4951 24.3456C29.5143 24.8736 29.4087 25.2624 29.1783 25.5072C28.9479 25.752 28.5783 25.8864 28.0695 25.9056C27.9111 25.9056 27.6807 25.8912 27.3831 25.8672C27.0855 25.8384 26.8647 25.8288 26.7207 25.8288C25.9623 25.848 25.5687 24.8592 25.5303 22.872C25.5303 22.2384 25.4487 21.8496 25.2807 21.7104C25.1127 21.5712 24.7287 21.48 24.1335 21.4464C24.0471 21.4464 23.9751 21.4368 23.9223 21.4176C22.3911 21.3312 21.4503 21.288 21.0951 21.288C18.4743 21.2352 15.9735 21.2256 13.5975 21.2592H12.8583C12.6999 21.2592 12.5415 21.2352 12.3831 21.192C12.2247 21.1488 12.1191 21.12 12.0663 21.1152C12.0135 21.1056 11.9607 21.0336 11.9079 20.904C11.8551 20.7744 11.8263 20.6736 11.8263 20.616C11.8263 20.5584 11.8167 20.4 11.8023 20.1552C11.7831 19.9104 11.7687 19.704 11.7495 19.5456C11.6631 18.4368 11.6199 17.8752 11.6199 17.856ZM19.5927 31.584C20.6151 31.584 21.8103 31.6656 23.1831 31.8336C24.5559 32.0016 25.7175 32.2176 26.6679 32.4816C28.2855 32.9568 29.1831 33.8016 29.3607 35.016C29.4135 35.3328 29.4423 35.6256 29.4423 35.8896C29.4423 37.0704 28.9767 38.0112 28.0407 38.712C27.4071 39.1872 26.8839 39.5616 26.4711 39.8352C26.0583 40.1088 25.5351 40.368 24.9015 40.6128C24.2679 40.8576 23.6343 40.992 23.0007 41.0112C22.7559 41.0112 22.1175 41.04 21.0855 41.1024C20.0583 41.1648 19.3671 41.1936 19.0119 41.1936C18.5175 41.1936 18.0807 41.16 17.6919 41.088C17.6055 41.088 17.4807 41.0688 17.3223 41.0352C16.5831 40.9104 16.0215 40.8096 15.6327 40.7328C15.2439 40.656 14.7735 40.4928 14.2215 40.2432C13.6647 39.9984 13.1943 39.6816 12.8103 39.2928C12.1047 38.6064 11.7543 37.9632 11.7543 37.3632C11.7543 36.1296 11.9319 35.2176 12.2823 34.6176C13.2663 32.9616 15.2919 31.9776 18.3543 31.6608C18.7575 31.608 19.1751 31.5792 19.5927 31.5792V31.584ZM23.4711 37.7328C23.9127 37.7328 24.2871 37.5552 24.5943 37.2048C24.9015 36.8544 25.0551 36.4224 25.0551 35.9088C25.0551 35.1696 24.6519 34.7136 23.8407 34.536C22.9767 34.3584 21.2631 34.272 18.6903 34.272H18.6663C18.4215 34.272 18.2055 34.3152 18.0183 34.4016C17.8359 34.488 17.6823 34.6272 17.5719 34.8096C17.4567 34.992 17.3799 35.1552 17.3319 35.2992C17.2887 35.4384 17.2311 35.64 17.1591 35.904C17.1255 36.0288 17.1063 36.144 17.1063 36.2496C17.1063 36.5328 17.2071 36.7584 17.4087 36.936C17.6103 37.1136 17.8599 37.224 18.1623 37.2816C18.4599 37.3536 18.8679 37.4112 19.3767 37.464C19.8855 37.5168 20.3367 37.5504 20.7207 37.5696C21.1095 37.5888 21.6039 37.6128 22.2135 37.6464C22.8183 37.68 23.2119 37.7088 23.3895 37.728H23.4711V37.7328Z" fill="#BC3C6A"/>
<path d="M18.8535 29.0111C18.8199 28.5887 18.8055 28.2239 18.8151 27.9167C18.8247 27.6095 18.9111 27.3503 19.0791 27.1391C19.2471 26.9279 19.5159 26.7791 19.8855 26.6879C20.6967 26.5103 21.1623 26.4239 21.2871 26.4239C21.7095 26.3903 22.0407 26.3903 22.2759 26.4239C22.5159 26.4575 22.6791 26.5583 22.7751 26.7263C22.8711 26.8943 22.9575 27.2159 23.0247 27.6911C23.0439 27.7247 23.0487 27.8687 23.0487 28.1135C23.0487 28.3583 23.0487 28.5935 23.0631 28.8143C23.0727 29.0351 23.0919 29.1455 23.1303 29.1455C23.5863 29.1455 24.6327 29.1743 26.2695 29.2367C27.9063 29.2991 28.9431 29.3279 29.3847 29.3279L31.6263 29.1167C31.6791 29.1359 31.7559 29.1743 31.8519 29.2367C31.9479 29.2991 32.0679 29.4239 32.2071 29.6063C32.3463 29.7935 32.3991 29.9903 32.3655 30.2015C32.3463 30.3071 32.2311 31.0031 32.0247 32.2847C31.7799 32.3039 31.6455 32.3135 31.6263 32.3135C31.5399 32.3135 28.4487 32.2799 22.3623 32.2079C22.0263 32.2079 21.1239 32.2319 19.6407 32.2751C18.1623 32.3183 17.3079 32.3423 17.0823 32.3423C16.6599 32.3615 15.5847 32.3519 13.8615 32.3135C12.1383 32.2799 11.0727 32.2511 10.6647 32.2319C10.5591 32.2319 10.3047 32.2511 9.90154 32.2847C9.49834 32.3183 9.23914 32.3375 9.13354 32.3375C8.97514 32.3375 8.84554 32.3231 8.73994 32.2991C8.63434 32.2703 8.55754 32.2175 8.51434 32.1263C8.47114 32.0399 8.44234 31.9631 8.43274 31.9007C8.42314 31.8383 8.41354 31.7135 8.40874 31.5167C8.39914 31.3247 8.39434 31.1711 8.39434 31.0655C8.36074 30.7487 8.36074 30.2927 8.39434 29.6927C8.41354 29.3759 8.57194 29.2175 8.86954 29.2175C9.31114 29.1983 10.6023 29.2079 12.7479 29.2463C14.8935 29.2799 16.2231 29.2895 16.7367 29.2703C16.9479 29.2703 17.6535 29.1839 18.8487 29.0063L18.8535 29.0111ZM11.6199 19.2959C11.7591 19.2767 11.9511 19.2383 12.1863 19.1759C12.4263 19.1135 12.6327 19.0703 12.8055 19.0415C12.9831 19.0175 13.1559 18.9935 13.3335 18.9743C16.4151 18.8687 18.8007 18.8159 20.4903 18.8159C22.4103 18.8159 24.4599 18.8783 26.6439 18.9983C27.2583 18.9983 27.6375 19.0127 27.7767 19.0367C27.9159 19.0655 28.1127 19.1039 28.3575 19.1567C28.6023 19.2095 28.7943 19.2911 28.9239 19.4063C29.0583 19.5215 29.1495 19.6655 29.2023 19.8431C29.2215 19.9151 29.2455 20.0015 29.2839 20.1071C29.3559 20.3903 29.3991 20.6063 29.4135 20.7695C29.4327 20.9615 29.4471 21.1583 29.4663 21.3503C29.5383 21.3839 29.5575 22.1231 29.5335 23.5679C29.5047 25.0127 29.4951 25.7519 29.4951 25.7855C29.5143 26.3135 29.4087 26.7023 29.1783 26.9471C28.9479 27.1919 28.5783 27.3263 28.0695 27.3455C27.9111 27.3455 27.6807 27.3311 27.3831 27.3071C27.0855 27.2783 26.8647 27.2687 26.7207 27.2687C25.9623 27.2879 25.5687 26.2991 25.5303 24.3119C25.5303 23.6783 25.4487 23.2895 25.2807 23.1503C25.1127 23.0111 24.7287 22.9199 24.1335 22.8863C24.0471 22.8863 23.9751 22.8767 23.9223 22.8575C22.3911 22.7711 21.4503 22.7279 21.0951 22.7279C18.4743 22.6751 15.9735 22.6655 13.5975 22.6991H12.8583C12.6999 22.6991 12.5415 22.6751 12.3831 22.6319C12.2247 22.5887 12.1191 22.5599 12.0663 22.5551C12.0135 22.5455 11.9607 22.4735 11.9079 22.3439C11.8551 22.2143 11.8263 22.1135 11.8263 22.0559C11.8263 21.9983 11.8167 21.8399 11.8023 21.5951C11.7831 21.3503 11.7687 21.1439 11.7495 20.9855C11.6631 19.8767 11.6199 19.3151 11.6199 19.2959ZM19.5927 33.0239C20.6151 33.0239 21.8103 33.1055 23.1831 33.2735C24.5559 33.4415 25.7175 33.6575 26.6679 33.9215C28.2855 34.3967 29.1831 35.2415 29.3607 36.4559C29.4135 36.7727 29.4423 37.0655 29.4423 37.3295C29.4423 38.5103 28.9767 39.4511 28.0407 40.1519C27.4071 40.6271 26.8839 41.0015 26.4711 41.2751C26.0583 41.5487 25.5351 41.8079 24.9015 42.0527C24.2679 42.2975 23.6343 42.4319 23.0007 42.4511C22.7559 42.4511 22.1175 42.4799 21.0855 42.5423C20.0583 42.6047 19.3671 42.6335 19.0119 42.6335C18.5175 42.6335 18.0807 42.5999 17.6919 42.5279C17.6055 42.5279 17.4807 42.5087 17.3223 42.4751C16.5831 42.3503 16.0215 42.2495 15.6327 42.1727C15.2439 42.0959 14.7735 41.9327 14.2215 41.6831C13.6647 41.4383 13.1943 41.1215 12.8103 40.7327C12.1047 40.0463 11.7543 39.4031 11.7543 38.8031C11.7543 37.5695 11.9319 36.6575 12.2823 36.0575C13.2663 34.4015 15.2919 33.4175 18.3543 33.1007C18.7575 33.0479 19.1751 33.0191 19.5927 33.0191V33.0239ZM23.4711 39.1727C23.9127 39.1727 24.2871 38.9951 24.5943 38.6447C24.9015 38.2943 25.0551 37.8623 25.0551 37.3487C25.0551 36.6095 24.6519 36.1535 23.8407 35.9759C22.9767 35.7983 21.2631 35.7119 18.6903 35.7119H18.6663C18.4215 35.7119 18.2055 35.7551 18.0183 35.8415C17.8359 35.9279 17.6823 36.0671 17.5719 36.2495C17.4567 36.4319 17.3799 36.5951 17.3319 36.7391C17.2887 36.8783 17.2311 37.0799 17.1591 37.3439C17.1255 37.4687 17.1063 37.5839 17.1063 37.6895C17.1063 37.9727 17.2071 38.1983 17.4087 38.3759C17.6103 38.5535 17.8599 38.6639 18.1623 38.7215C18.4599 38.7935 18.8679 38.8511 19.3767 38.9039C19.8855 38.9567 20.3367 38.9903 20.7207 39.0095C21.1095 39.0287 21.6039 39.0527 22.2135 39.0863C22.8183 39.1199 23.2119 39.1487 23.3895 39.1679H23.4711V39.1727Z" fill="white"/>
<path d="M60.3209 9.76318C59.5385 9.76318 56.6489 9.88318 55.8713 9.93598C53.0873 10.1376 45.1001 11.3376 44.7833 18.456C44.3993 27.0816 44.6537 40.8528 45.7481 44.5872C46.8425 48.3216 50.3993 51.6144 56.3657 52.1808C61.4345 52.6608 73.3577 53.7264 77.3465 51.0864C82.6649 47.568 83.7833 45.0384 84.4265 36.0288C85.0697 27.0192 87.9641 14.3376 79.2761 11.3136C72.2537 8.87038 61.5113 9.76318 60.3161 9.76318H60.3209Z" fill="#418099"/>
<path d="M60.3209 7.36328C59.5385 7.36328 56.6489 7.48328 55.8713 7.53608C53.0873 7.73768 45.1001 8.93768 44.7833 16.0561C44.3993 24.6817 44.6537 38.4529 45.7481 42.1873C46.8425 45.9217 50.3993 49.2145 56.3657 49.7809C61.4345 50.2609 73.3577 51.3265 77.3465 48.6865C82.6649 45.1681 83.7833 42.6385 84.4265 33.6289C85.0697 24.6193 87.9641 11.9377 79.2761 8.91368C72.2537 6.47048 61.5113 7.36328 60.3161 7.36328H60.3209Z" fill="#97CFDB"/>
<path d="M67.7039 37.4112C67.6511 37.6944 67.5743 38.1264 67.4783 38.7168C67.3823 39.3072 67.3151 39.672 67.2815 39.8112C67.2095 40.2 66.9839 40.4256 66.5951 40.4976C66.2063 40.5696 65.2991 40.6224 63.8735 40.656C63.5231 40.6752 63.3119 40.464 63.2399 40.0224V38.9136C63.2399 38.7888 63.2399 38.664 63.2543 38.5296C63.2687 38.3952 63.2543 38.2944 63.2399 38.2272C63.2207 38.1552 63.2159 38.0928 63.2159 38.0304C63.2159 37.968 63.1919 37.92 63.1487 37.8864C63.1055 37.8528 63.0671 37.8192 63.0431 37.7952C63.0191 37.7664 62.9567 37.7424 62.8607 37.7136C62.7647 37.6848 62.6831 37.6704 62.6207 37.6608C62.5583 37.6512 62.4479 37.632 62.2895 37.5936C61.9919 37.5408 60.7007 37.4784 58.4207 37.4112C56.1407 37.3392 54.7631 37.3056 54.2879 37.3056C53.9903 37.3056 53.7503 37.1184 53.5727 36.7536C53.2367 35.9952 53.2127 35.0832 53.4911 34.008C53.5247 33.816 53.7647 33.672 54.2063 33.5856C54.2591 33.552 54.7871 33.5376 55.7903 33.5472C56.7935 33.5568 57.3215 33.5616 57.3743 33.5616C57.9359 33.5424 59.5679 33.504 62.2559 33.4416C64.9487 33.3792 66.5231 33.3408 66.9839 33.3216C67.5311 33.288 69.0047 33.2592 71.4047 33.24C73.8047 33.2208 75.1487 33.216 75.4319 33.216C75.8207 33.1968 76.1279 33.456 76.3535 33.9792C76.7231 34.752 76.8047 35.5296 76.5935 36.3024C76.5215 36.5664 76.3103 36.7584 75.9599 36.8832C75.5711 37.0416 74.1983 37.1568 71.8415 37.224C69.4847 37.296 68.2511 37.3296 68.1455 37.3296L67.6943 37.4112H67.7039ZM60.8927 21.7824L69.2351 21.3312V18.1632C69.6047 18.0768 69.9983 18.0096 70.4207 17.9664C70.8431 17.9232 71.2031 17.904 71.5007 17.9136C71.7983 17.9232 72.1967 17.9328 72.6911 17.9424C73.1855 17.952 73.5455 17.9568 73.7711 17.9568C73.8959 17.9568 74.0255 18.0336 74.1695 18.1824C74.3087 18.3312 74.3999 18.4704 74.4335 18.5904C74.9087 20.6832 75.1823 22.1376 75.2543 22.9488C75.2879 23.232 75.2879 23.5152 75.2543 23.808C75.2207 24.096 75.1631 24.4656 75.0815 24.9024C74.9999 25.344 74.9519 25.6224 74.9375 25.7472C74.9039 25.9056 74.7071 27.0144 74.3567 29.0736C73.1231 29.1792 72.4751 29.232 72.4031 29.232C67.3535 29.424 64.3583 29.52 63.4271 29.52C62.0351 29.52 60.0287 29.3712 57.4079 29.0688C56.6879 28.9824 56.1071 28.6944 55.6799 28.2096C55.2479 27.7248 55.0319 27.1392 55.0319 26.4528L55.0031 23.5248C54.9839 23.1024 54.9359 22.488 54.8591 21.6768C54.7775 20.8656 54.7295 20.2704 54.7151 19.8816C54.7151 19.7568 54.7391 19.6224 54.7967 19.4736C54.8495 19.3248 54.9215 19.224 55.0079 19.1712C56.0975 18.6432 57.1487 18.4608 58.1519 18.6192C59.1215 18.7584 59.6399 18.8304 59.7071 18.8304C60.1487 18.8304 60.4511 18.936 60.6191 19.1472C60.7871 19.3584 60.8783 19.6656 60.8975 20.0688V21.7872L60.8927 21.7824ZM61.2335 24.0768C61.2143 24.1632 61.1903 24.3072 61.1519 24.4992C61.1183 24.6912 61.0895 24.8688 61.0703 25.0272C61.0511 25.1856 61.0511 25.344 61.0703 25.5024C61.0895 26.2944 61.1951 26.784 61.3871 26.9664C61.5791 27.1536 62.0639 27.2448 62.8415 27.2448C64.9007 27.2112 66.6143 27.1632 67.9871 27.1152C68.7263 27.096 69.2255 26.9952 69.4799 26.8128C69.7343 26.6256 69.9311 26.2368 70.0751 25.6368C70.2143 25.0224 70.1087 24.504 69.7583 24.0912C69.4079 23.6784 68.8895 23.4864 68.1983 23.5248C67.7759 23.544 65.4527 23.7264 61.2287 24.0768H61.2335Z" fill="#418099"/>
<path d="M67.7039 38.8511C67.6511 39.1343 67.5743 39.5663 67.4783 40.1567C67.3823 40.7471 67.3151 41.1119 67.2815 41.2511C67.2095 41.6399 66.9839 41.8655 66.5951 41.9375C66.2063 42.0095 65.2991 42.0623 63.8735 42.0959C63.5231 42.1151 63.3119 41.9039 63.2399 41.4623V40.3535C63.2399 40.2287 63.2399 40.1039 63.2543 39.9695C63.2687 39.8351 63.2543 39.7343 63.2399 39.6671C63.2207 39.5951 63.2159 39.5327 63.2159 39.4703C63.2159 39.4079 63.1919 39.3599 63.1487 39.3263C63.1055 39.2927 63.0671 39.2591 63.0431 39.2351C63.0191 39.2063 62.9567 39.1823 62.8607 39.1535C62.7647 39.1247 62.6831 39.1103 62.6207 39.1007C62.5583 39.0911 62.4479 39.0719 62.2895 39.0335C61.9919 38.9807 60.7007 38.9183 58.4207 38.8511C56.1407 38.7791 54.7631 38.7455 54.2879 38.7455C53.9903 38.7455 53.7503 38.5583 53.5727 38.1935C53.2367 37.4351 53.2127 36.5231 53.4911 35.4479C53.5247 35.2559 53.7647 35.1119 54.2063 35.0255C54.2591 34.9919 54.7871 34.9775 55.7903 34.9871C56.7935 34.9967 57.3215 35.0015 57.3743 35.0015C57.9359 34.9823 59.5679 34.9439 62.2559 34.8815C64.9487 34.8191 66.5231 34.7807 66.9839 34.7615C67.5311 34.7279 69.0047 34.6991 71.4047 34.6799C73.8047 34.6607 75.1487 34.6559 75.4319 34.6559C75.8207 34.6367 76.1279 34.8959 76.3535 35.4191C76.7231 36.1919 76.8047 36.9695 76.5935 37.7423C76.5215 38.0063 76.3103 38.1983 75.9599 38.3231C75.5711 38.4815 74.1983 38.5967 71.8415 38.6639C69.4847 38.7359 68.2511 38.7695 68.1455 38.7695L67.6943 38.8511H67.7039ZM60.8927 23.2223L69.2351 22.7711V19.6031C69.6047 19.5167 69.9983 19.4495 70.4207 19.4063C70.8431 19.3631 71.2031 19.3439 71.5007 19.3535C71.7983 19.3631 72.1967 19.3727 72.6911 19.3823C73.1855 19.3919 73.5455 19.3967 73.7711 19.3967C73.8959 19.3967 74.0255 19.4735 74.1695 19.6223C74.3087 19.7711 74.3999 19.9103 74.4335 20.0303C74.9087 22.1231 75.1823 23.5775 75.2543 24.3887C75.2879 24.6719 75.2879 24.9551 75.2543 25.2479C75.2207 25.5359 75.1631 25.9055 75.0815 26.3423C74.9999 26.7839 74.9519 27.0623 74.9375 27.1871C74.9039 27.3455 74.7071 28.4543 74.3567 30.5135C73.1231 30.6191 72.4751 30.6719 72.4031 30.6719C67.3535 30.8639 64.3583 30.9599 63.4271 30.9599C62.0351 30.9599 60.0287 30.8111 57.4079 30.5087C56.6879 30.4223 56.1071 30.1343 55.6799 29.6495C55.2479 29.1647 55.0319 28.5791 55.0319 27.8927L55.0031 24.9647C54.9839 24.5423 54.9359 23.9279 54.8591 23.1167C54.7775 22.3055 54.7295 21.7103 54.7151 21.3215C54.7151 21.1967 54.7391 21.0623 54.7967 20.9135C54.8495 20.7647 54.9215 20.6639 55.0079 20.6111C56.0975 20.0831 57.1487 19.9007 58.1519 20.0591C59.1215 20.1983 59.6399 20.2703 59.7071 20.2703C60.1487 20.2703 60.4511 20.3759 60.6191 20.5871C60.7871 20.7983 60.8783 21.1055 60.8975 21.5087V23.2271L60.8927 23.2223ZM61.2335 25.5167C61.2143 25.6031 61.1903 25.7471 61.1519 25.9391C61.1183 26.1311 61.0895 26.3087 61.0703 26.4671C61.0511 26.6255 61.0511 26.7839 61.0703 26.9423C61.0895 27.7343 61.1951 28.2239 61.3871 28.4063C61.5791 28.5935 62.0639 28.6847 62.8415 28.6847C64.9007 28.6511 66.6143 28.6031 67.9871 28.5551C68.7263 28.5359 69.2255 28.4351 69.4799 28.2527C69.7343 28.0655 69.9311 27.6767 70.0751 27.0767C70.2143 26.4623 70.1087 25.9439 69.7583 25.5311C69.4079 25.1183 68.8895 24.9263 68.1983 24.9647C67.7759 24.9839 65.4527 25.1663 61.2287 25.5167H61.2335Z" fill="white"/>
<path d="M94.8953 21.0864C94.8953 21.0864 89.8553 23.1648 89.3945 30.3216C88.9337 37.4784 89.6249 44.6688 90.8585 47.6928C92.0921 50.7168 94.5545 52.7184 99.5561 52.7184C104.558 52.7184 107.639 52.4496 112.411 52.7184C115.271 52.8816 118.876 53.256 120.801 48.792C122.726 44.328 121.646 29.9376 119.995 24.8544C118.905 21.5088 116.447 18.8592 107.875 19.2336C99.9449 19.5792 98.1017 19.5792 94.9049 21.0816L94.8953 21.0864Z" fill="#C18E1B"/>
<path d="M94.8953 18.6865C94.8953 18.6865 89.8553 20.7649 89.3945 27.9217C88.9337 35.0785 89.6249 42.2689 90.8585 45.2929C92.0921 48.3169 94.5545 50.3185 99.5561 50.3185C104.558 50.3185 107.639 50.0497 112.411 50.3185C115.271 50.4817 118.876 50.8561 120.801 46.3921C122.726 41.9281 121.646 27.5377 119.995 22.4545C118.905 19.1089 116.447 16.4593 107.875 16.8337C99.9449 17.1793 98.1017 17.1793 94.9049 18.6817L94.8953 18.6865Z" fill="#FED054"/>
<path d="M101.016 24.624C101.136 24.6384 101.323 24.6624 101.582 24.7056C101.836 24.744 102.067 24.7824 102.268 24.816C102.47 24.8496 102.657 24.8928 102.835 24.9456C102.888 24.9744 103.089 25.0416 103.43 25.1472C103.771 25.2528 104.006 25.3296 104.126 25.368C104.246 25.4064 104.438 25.4736 104.702 25.5696C104.966 25.6656 105.187 25.7568 105.379 25.8432C105.566 25.9296 105.753 26.0208 105.945 26.1168C106.646 26.5056 107.097 27.0288 107.304 27.6912C107.51 28.3488 107.486 29.0496 107.232 29.7888C106.896 30.8928 106.492 31.9104 106.022 32.8512C105.902 33.0816 105.729 33.2928 105.508 33.4944C105.288 33.696 105.062 33.8352 104.832 33.9168C103.204 34.4832 101.976 34.7952 101.14 34.8624C99.8491 34.968 98.8075 34.656 98.0155 33.9168C97.5451 33.4752 97.2139 32.76 97.0267 31.7808C96.5707 29.3616 97.1563 27.3072 98.7787 25.6128C99.3835 24.9792 100.128 24.6528 101.016 24.624ZM109.824 38.976C107.769 39.2448 106.665 39.3936 106.516 39.4176C105.71 39.5376 104.203 39.6336 101.99 39.7008C99.7771 39.768 98.2555 39.7392 97.4251 39.6192C97.3435 39.6048 97.2619 39.5568 97.1707 39.48C97.0843 39.3984 97.0411 39.3264 97.0411 39.2592C96.9883 38.4816 96.9883 37.848 97.0411 37.3632C97.0699 37.0272 97.2091 36.6288 97.4635 36.1728C98.3371 35.9328 98.9419 35.7984 99.2779 35.7696C99.5179 35.7312 100.67 35.7456 102.734 35.8176C104.798 35.8896 105.931 35.928 106.132 35.928C106.387 35.9136 106.771 35.904 107.28 35.8992C107.788 35.8944 108.172 35.8848 108.427 35.8704L109.876 35.7312C109.972 33.4464 110.025 32.184 110.04 31.9392L110.361 24.4176C110.4 24.3648 110.467 24.3024 110.563 24.2352C110.659 24.168 110.865 24.072 111.187 23.952C111.508 23.832 111.844 23.7552 112.195 23.7312C112.368 23.7168 112.593 23.7312 112.862 23.76C113.131 23.7936 113.361 23.8368 113.548 23.8896L113.832 23.952C113.884 24.0048 113.956 24.072 114.043 24.144C114.129 24.216 114.23 24.3648 114.345 24.5856C114.46 24.8064 114.489 25.0128 114.436 25.2C114.249 25.7664 114.105 27.648 114.014 30.8544C113.918 34.0608 113.86 35.7648 113.832 35.9664C113.817 36.1296 113.812 36.4464 113.822 36.9216C113.827 37.3968 113.803 37.7136 113.75 37.8576C113.712 38.0208 113.697 38.4912 113.721 39.2688C113.745 40.0464 113.721 40.5072 113.668 40.6416C113.548 41.016 113.38 41.2752 113.164 41.4096C112.948 41.544 112.632 41.6112 112.219 41.6112C111.532 41.5968 111.024 41.5632 110.688 41.5104C110.217 41.4144 110.011 41.1456 110.064 40.704C110.078 40.5984 110.04 40.3248 109.953 39.888C109.867 39.4512 109.824 39.144 109.824 38.9712V38.976ZM103.656 29.784C103.656 29.1936 103.54 28.7712 103.315 28.512C103.084 28.2576 102.715 28.128 102.206 28.128C101.616 28.128 101.092 28.3584 100.632 28.824C100.176 29.2896 99.9403 29.8224 99.9259 30.4272C99.9259 30.7632 100.132 31.1184 100.55 31.488C100.968 31.8576 101.361 32.0208 101.74 31.9824C102.24 31.9296 102.681 31.6992 103.07 31.296C103.459 30.8928 103.656 30.3888 103.656 29.784Z" fill="#C18E1B"/>
<path d="M101.016 26.064C101.136 26.0784 101.323 26.1024 101.582 26.1456C101.836 26.184 102.067 26.2224 102.268 26.256C102.47 26.2896 102.657 26.3328 102.835 26.3856C102.888 26.4144 103.089 26.4816 103.43 26.5872C103.771 26.6928 104.006 26.7696 104.126 26.808C104.246 26.8464 104.438 26.9136 104.702 27.0096C104.966 27.1056 105.187 27.1968 105.379 27.2832C105.566 27.3696 105.753 27.4608 105.945 27.5568C106.646 27.9456 107.097 28.4688 107.304 29.1312C107.51 29.7888 107.486 30.4896 107.232 31.2288C106.896 32.3328 106.492 33.3504 106.022 34.2912C105.902 34.5216 105.729 34.7328 105.508 34.9344C105.288 35.136 105.062 35.2752 104.832 35.3568C103.204 35.9232 101.976 36.2352 101.14 36.3024C99.8491 36.408 98.8075 36.096 98.0155 35.3568C97.5451 34.9152 97.2139 34.2 97.0267 33.2208C96.5707 30.8016 97.1563 28.7472 98.7787 27.0528C99.3835 26.4192 100.128 26.0928 101.016 26.064ZM109.824 40.416C107.769 40.6848 106.665 40.8336 106.516 40.8576C105.71 40.9776 104.203 41.0736 101.99 41.1408C99.7771 41.208 98.2555 41.1792 97.4251 41.0592C97.3435 41.0448 97.2619 40.9968 97.1707 40.92C97.0843 40.8384 97.0411 40.7664 97.0411 40.6992C96.9883 39.9216 96.9883 39.288 97.0411 38.8032C97.0699 38.4672 97.2091 38.0688 97.4635 37.6128C98.3371 37.3728 98.9419 37.2384 99.2779 37.2096C99.5179 37.1712 100.67 37.1856 102.734 37.2576C104.798 37.3296 105.931 37.368 106.132 37.368C106.387 37.3536 106.771 37.344 107.28 37.3392C107.788 37.3344 108.172 37.3248 108.427 37.3104L109.876 37.1712C109.972 34.8864 110.025 33.624 110.04 33.3792L110.361 25.8576C110.4 25.8048 110.467 25.7424 110.563 25.6752C110.659 25.608 110.865 25.512 111.187 25.392C111.508 25.272 111.844 25.1952 112.195 25.1712C112.368 25.1568 112.593 25.1712 112.862 25.2C113.131 25.2336 113.361 25.2768 113.548 25.3296L113.832 25.392C113.884 25.4448 113.956 25.512 114.043 25.584C114.129 25.656 114.23 25.8048 114.345 26.0256C114.46 26.2464 114.489 26.4528 114.436 26.64C114.249 27.2064 114.105 29.088 114.014 32.2944C113.918 35.5008 113.86 37.2048 113.832 37.4064C113.817 37.5696 113.812 37.8864 113.822 38.3616C113.827 38.8368 113.803 39.1536 113.75 39.2976C113.712 39.4608 113.697 39.9312 113.721 40.7088C113.745 41.4864 113.721 41.9472 113.668 42.0816C113.548 42.456 113.38 42.7152 113.164 42.8496C112.948 42.984 112.632 43.0512 112.219 43.0512C111.532 43.0368 111.024 43.0032 110.688 42.9504C110.217 42.8544 110.011 42.5856 110.064 42.144C110.078 42.0384 110.04 41.7648 109.953 41.328C109.867 40.8912 109.824 40.584 109.824 40.4112V40.416ZM103.656 31.224C103.656 30.6336 103.54 30.2112 103.315 29.952C103.084 29.6976 102.715 29.568 102.206 29.568C101.616 29.568 101.092 29.7984 100.632 30.264C100.176 30.7296 99.9403 31.2624 99.9259 31.8672C99.9259 32.2032 100.132 32.5584 100.55 32.928C100.968 33.2976 101.361 33.4608 101.74 33.4224C102.24 33.3696 102.681 33.1392 103.07 32.736C103.459 32.3328 103.656 31.8288 103.656 31.224Z" fill="white"/>
</svg>
